<?xml version="1.0" standalone="no"?><!DOCTYPE svg PUBLIC "-//W3C//DTD SVG 1.1//EN" "http://www.w3.org/Graphics/SVG/1.1/DTD/svg11.dtd"><svg t="1678323231905" class="icon" viewBox="0 0 1024 1024" version="1.1" xmlns="http://www.w3.org/2000/svg" p-id="6347" xmlns:xlink="http://www.w3.org/1999/xlink" width="128" height="128"><path d="M932.8 438.7c-30.8-81.5-83.3-152.6-146.7-211.9-60.5-56.6-136.4-97.5-218.9-108.9-68.1-9.4-139.7-8.1-205.9 11.7-18.8 5.6-29.6 10.6-31.5 11.5 1.4-0.6 3.2-0.8 5.1-0.8-2 0.5-3.9 1-5.9 1.6-110.2 31-176.4 111.7-176.4 111.7C119 286.9 43.7 388.8 82.3 534.4c1.6 6.1 3.6 12.4 5.8 18.6 1.1 3.2 2.2 6.3 3.4 9.5 0.7 2 1.5 3.9 2.3 5.9 10.3 26.1 23.9 50.9 39.5 74.5 3.5 5.4 7.2 10.8 11 16.1-1.2-1.9-3.4-5-6.2-9.2 11.5 16.8 23.9 33 36.7 48.4 42.1 50.6 94.4 94.1 150.2 128.8 39.4 24.5 82.7 47.9 128.2 59.5 39.9 14.4 160.2 49.5 275.7 0.1 64.3-27.4 118.8-77.3 158.2-134.4 11.3-16.4 21.4-33.5 30.1-51.4 40-81.9 48-176.4 15.6-262.1z" fill="#F6B545" p-id="6348"></path><path d="M487.4 112.2c26.8 0 53.5 2 79.8 5.7 82.6 11.4 158.4 52.4 218.9 108.9 63.4 59.3 115.9 130.4 146.7 211.9 32.4 85.7 24.4 180.2-15.6 261.9-8.7 17.8-18.8 35-30.1 51.4-39.4 57.2-93.9 107-158.2 134.4-44.4 19-89.4 25.4-130.4 25.4-65.7 0-120.8-16.7-145.4-25.6-45.5-11.6-88.8-35-128.2-59.5-55.8-34.7-108.1-78.2-150.2-128.8-12.8-15.4-25.2-31.6-36.7-48.4 2.8 4.2 5 7.3 6.2 9.2-3.8-5.4-7.4-10.7-11-16.1-15.6-23.5-29.1-48.4-39.5-74.5-0.8-2-1.6-3.9-2.3-5.9-1.2-3.1-2.3-6.3-3.4-9.5-2.1-6.3-4.1-12.5-5.8-18.6-38.6-145.6 36.7-247.5 70.3-280.8 0 0 66.3-80.7 176.4-111.7 1.9-0.5 3.9-1 5.9-1.6-1.9 0-3.7 0.2-5.1 0.8 1.9-0.9 12.7-5.9 31.5-11.5 40.7-11.9 83.5-17.1 126.2-17.1m0-39.2c-49 0-95.2 6.4-137.4 19-20.5 6.1-33.1 11.7-36.9 13.6-110 32.7-178.7 108.8-189.5 121.4C99.2 251.6-2.5 367.7 44.3 544.3c1.7 6.4 3.8 13.2 6.6 21.3 1.2 3.4 2.4 7 3.8 10.5 0.9 2.3 1.8 4.5 2.6 6.7 10.7 27.1 25.3 54.6 43.2 81.6 3.7 5.7 7.7 11.5 11.6 17.1 0.9 1.2 1.8 2.4 2.8 3.5 9.3 12.8 19.2 25.6 29.6 38.1 42.7 51.3 97.9 98.6 159.7 137 36.1 22.4 84.1 49.8 137.4 63.7 29.5 10.5 87.6 27.3 156.9 27.3 52.3 0 101.3-9.6 145.8-28.6 66.6-28.4 128.8-81.1 175.1-148.3 12.4-18.1 23.5-37 33-56.4 45.9-93.6 52.1-200.4 17.1-293-31.1-82.3-83.8-158.6-156.6-226.6C742.3 132.2 659.2 91 572.5 79c-28.9-4-57.6-6-85.1-6z" fill="#6B0A0C" p-id="6349"></path><path d="M728.8 886.6c-133.7 57.1-274 1-288.4-5 14 4.1 28 7.4 42 9.6 77.5 12.4 158.7-38.7 214.6-86.6 75.3-64.6 128.7-158.2 136.9-257.9 7.4-89.5-31.9-172-88.1-239.4-57.5-68.8-132.2-123.4-218.6-149.2-33.1-9.9-68.2-12.1-102.5-14.7-28.2-2.1-56.7-3.9-85-3-2.8 0.1-7.4-0.5-10 0.8 1.9-0.9 12.7-5.9 31.5-11.5 66.2-19.8 137.9-21.1 205.9-11.7 82.6 11.4 158.4 52.4 218.9 108.9 63.4 59.3 115.9 130.4 146.7 211.9 32.4 85.7 24.4 180.2-15.6 261.9-8.7 17.8-18.8 35-30.1 51.4-39.3 57.2-93.9 107-158.2 134.5z" fill="#F6B545" p-id="6350"></path><path d="M482.3 892.3C426 885 372.7 856.6 324.9 827c-55.8-34.7-108.1-78.2-150.2-128.8-40-48-76.2-102.6-92.5-163.8-38.6-145.6 36.7-247.4 70.3-280.8 0 0 66.3-80.7 176.4-111.7 11-3.1 22.4-5.7 34.3-7.7 2.2-0.4 4.5-0.7 6.8-1 3.4-0.5 6.7-0.9 10.2-1.3 0.9-0.1 1.7-0.2 2.6-0.3 2.5-0.2 5-0.5 7.5-0.7 1.2-0.1 2.5-0.2 3.7-0.2 3.1-0.3 6.1-0.4 9.3-0.5 3.8-0.1 7.7-0.2 11.5-0.2s7.8 0 11.7 0.2c3.9 0.1 7.8 0.4 11.7 0.7h0.5c3.7 0.2 7.4 0.6 11.2 1h0.8c3.3 0.4 6.6 0.8 9.9 1.4 7.7 1 15.3 2.4 23.1 4.2 2.9 0.6 5.7 1.2 8.6 2 2.9 0.7 5.8 1.4 8.7 2.2 2.2 0.5 4.3 1.2 6.5 1.8 13.1 3.8 26.4 8.5 39.9 14.2 2.3 0.9 4.5 1.9 6.8 2.9 2 0.9 4 1.8 6.1 2.7 2.5 1.2 5.1 2.4 7.6 3.6 2.2 1 4.3 2.1 6.5 3.2 3.7 1.8 7.4 3.7 11.1 5.7l7.5 4.2c3.3 1.7 6.5 3.6 9.7 5.6 3 1.7 6 3.5 8.9 5.4 6 3.7 12 7.6 18 11.6 3.9 2.6 7.8 5.4 11.7 8.2 5.1 3.7 10.2 7.5 15.5 11.4 2.3 1.8 4.7 3.6 6.9 5.4 10 7.9 20.1 16.3 30.3 25.4 2.6 2.3 5.2 4.6 7.8 7 3.7 3.4 7.4 6.8 11.1 10.3 6.3 6 12.3 11.9 18 17.9 2.4 2.5 4.7 4.9 7 7.4 0.2 0.1 0.3 0.3 0.4 0.4 2.3 2.5 4.6 5 6.8 7.5l6.3 7.2c0.1 0.2 0.2 0.3 0.5 0.5 0.3 0.4 0.7 0.8 1 1.2 1.8 2.2 3.5 4.3 5.2 6.4 2.9 3.4 5.6 6.9 8.2 10.4 1.8 2.3 3.5 4.6 5.2 6.9 1.9 2.5 3.8 5.1 5.5 7.7 17.1 24.3 30.2 48.7 39.9 72.9 3.1 7.7 5.8 15.3 8.2 23 0.8 2.4 1.5 4.8 2.2 7.3 0.7 2.3 1.3 4.7 2 7.1 0.5 2.1 1.1 4.2 1.6 6.3 0.6 2.5 1.2 5 1.7 7.5 0 0.1 0 0.3 0.1 0.4 0.5 2.7 1.1 5.3 1.5 8 0.5 2.3 0.9 4.7 1.2 7.1 1.7 10.7 2.7 21.4 3.2 32 0.1 2.3 0.2 4.7 0.2 6.9 0.4 16.6-0.8 32.9-3.1 49-0.3 2.1-0.6 4.2-1 6.3-2 12.2-4.8 24.3-8.2 36.2-0.6 2.1-1.2 4.2-1.9 6.3-0.4 1.5-1 3-1.5 4.6-0.7 2.2-1.4 4.4-2.2 6.6-1.5 4.3-3.1 8.6-4.8 12.9-1 2.5-2 5.1-3.1 7.6-3.4 8.1-7.2 16.1-11.2 24-0.9 1.8-1.8 3.6-2.7 5.3-5.1 9.6-10.5 18.9-16.3 28.1-1.4 2.2-2.9 4.5-4.4 6.8-1.5 2.3-3 4.5-4.6 6.7-1.5 2.2-3 4.4-4.6 6.6-1.6 2.2-3.2 4.4-4.8 6.5-1.5 2.1-3.1 4.1-4.7 6.1-4.2 5.3-8.4 10.6-12.7 15.7-2.7 3.1-5.4 6.2-8.2 9.3-0.4 0.5-0.8 0.9-1.2 1.3-1.6 1.7-3.1 3.5-4.8 5.2-43.7 46.7-98 86.5-158.5 108.3-32.4 11.6-62.4 14.5-92 10.6z" fill="#FFE27A" p-id="6351"></path><path d="M414.7 130.1c3.8 0 7.8 0 11.7 0.2 3.9 0.1 7.8 0.4 11.7 0.7h0.2c0.1 0 0.2 0 0.3 0.1 3.7 0.2 7.4 0.6 11.2 1h0.8c3.3 0.4 6.6 0.8 9.9 1.4 7.7 1 15.3 2.4 23.1 4.2 2.9 0.6 5.7 1.2 8.6 2 2.9 0.7 5.8 1.4 8.7 2.2 2.2 0.5 4.3 1.2 6.5 1.8 13.1 3.8 26.4 8.5 39.9 14.2 2.3 0.9 4.5 1.9 6.8 2.9 2 0.9 4 1.8 6.1 2.7 2.5 1.2 5.1 2.4 7.6 3.6 2.2 1 4.3 2.1 6.5 3.2 3.7 1.8 7.4 3.7 11.1 5.7l7.5 4.2c3.3 1.7 6.5 3.6 9.7 5.6 3 1.7 6 3.5 8.9 5.4 6 3.7 12 7.6 18 11.6 3.9 2.6 7.8 5.4 11.7 8.2 5.1 3.7 10.2 7.5 15.5 11.4 2.3 1.8 4.7 3.6 6.9 5.4 10 7.9 20.1 16.3 30.3 25.4 2.6 2.3 5.2 4.6 7.8 7 3.7 3.4 7.4 6.8 11.1 10.3 6.3 6 12.3 11.9 18 17.9 2.4 2.5 4.7 4.9 7 7.4 0.2 0.1 0.3 0.3 0.4 0.4 2.3 2.5 4.6 5 6.8 7.5l6.3 7.2c0.1 0.2 0.2 0.3 0.5 0.5 0.3 0.4 0.7 0.8 1 1.2 1.8 2.2 3.5 4.3 5.2 6.4 2.9 3.4 5.6 6.9 8.2 10.4 1.8 2.3 3.5 4.6 5.2 6.9 1.9 2.5 3.8 5.1 5.5 7.7 17.1 24.3 30.2 48.7 39.9 72.9 3.1 7.6 5.8 15.3 8.2 23 0.8 2.4 1.5 4.8 2.2 7.3 0.7 2.3 1.3 4.7 2 7.1 0.5 2.1 1.1 4.2 1.6 6.3 0.6 2.5 1.2 5 1.7 7.5 0 0.1 0 0.3 0.1 0.4 0.5 2.7 1.1 5.3 1.5 8 0.5 2.3 0.9 4.7 1.2 7.1 1.7 10.7 2.7 21.4 3.2 32 0.1 2.3 0.2 4.7 0.2 6.9 0.4 16.6-0.8 32.9-3.1 49-0.3 2.1-0.6 4.2-1 6.3-2 12.2-4.8 24.3-8.2 36.2-0.6 2.1-1.2 4.2-1.9 6.3-0.4 1.5-1 3-1.5 4.6-0.7 2.2-1.4 4.4-2.2 6.6-1.5 4.3-3.1 8.6-4.8 12.9-1 2.5-2 5.1-3.1 7.6-3.4 8.1-7.2 16.1-11.2 24-0.9 1.8-1.8 3.6-2.7 5.3-5.1 9.6-10.5 18.9-16.3 28.1-1.4 2.2-2.9 4.5-4.4 6.8-1.5 2.3-3 4.5-4.6 6.7-1.5 2.2-3 4.4-4.6 6.6-1.6 2.2-3.2 4.4-4.8 6.5-1.5 2.1-3.1 4.1-4.7 6.1-4.2 5.3-8.4 10.6-12.7 15.7-2.7 3.1-5.4 6.2-8.2 9.3-0.4 0.5-0.8 0.9-1.2 1.3-1.6 1.7-3.1 3.5-4.8 5.2-43.7 46.7-98 86.5-158.5 108.3-23.2 8.3-45.3 12.1-67 12.1-8.3 0-16.5-0.6-24.7-1.6C426 885 372.7 856.6 324.9 827c-55.8-34.7-108.1-78.2-150.2-128.8-40-48-76.2-102.6-92.5-163.8-38.6-145.6 36.7-247.4 70.3-280.8 0 0 66.3-80.7 176.4-111.7 11-3.1 22.4-5.7 34.3-7.7 2.2-0.4 4.5-0.7 6.8-1 3.4-0.5 6.7-0.9 10.2-1.3 0.9-0.1 1.7-0.2 2.6-0.3 2.5-0.2 5-0.5 7.5-0.7 1.2-0.1 2.5-0.2 3.7-0.2 3.1-0.3 6.1-0.4 9.3-0.5 3.7 0 7.6-0.1 11.4-0.1m0-39.2c-4.3 0-8.6 0.1-12.9 0.3-2.5 0.1-6.1 0.2-9.9 0.5-1.7 0.1-3.4 0.2-5.2 0.3-1.9 0.1-3.7 0.3-5.6 0.5l-2 0.2c-1.5 0.1-2.8 0.3-4 0.4-3.7 0.4-7.3 0.9-10.9 1.4-2.2 0.3-4.7 0.7-7.2 1.1-13.3 2.2-26.2 5.1-38.8 8.6-113 31.8-183.7 110.1-194.7 122.9-24.3 24.7-126 140.8-79.2 317.4C59.8 603 91.7 659.8 144.5 723.3c42.7 51.3 97.9 98.6 159.7 137 48.7 30.3 107.4 62.4 173 70.9 9.9 1.3 19.9 1.9 29.7 1.9 27 0 53.2-4.7 80.2-14.4 62.1-22.3 122.2-63.3 173.9-118.4 1.6-1.7 3.2-3.4 4.8-5.2 0.7-0.7 1.3-1.4 2-2.2 2.9-3.2 5.8-6.4 8.6-9.7 4.8-5.7 9.4-11.3 13.8-17 1.8-2.3 3.6-4.6 5.3-6.9 1.6-2.1 3.3-4.4 5.1-6.9l0.5-0.7c1.5-2.2 3.1-4.3 4.6-6.5 1.7-2.4 3.4-4.9 5-7.4 1.7-2.5 3.3-4.9 4.8-7.4 6.6-10.3 12.6-20.7 18-30.9 0.9-1.7 1.9-3.7 2.9-5.7 4.7-9.3 8.8-18 12.5-26.8 0.7-1.7 1.6-3.7 2.4-5.8l0.9-2.2c0.1-0.2 0.2-0.4 0.2-0.6 1.8-4.6 3.5-9.3 5.2-14 0.9-2.6 1.7-5 2.5-7.3 0.6-1.8 1.2-3.6 1.7-5.3 0.5-1.5 0.9-3 1.4-4.5l0.6-1.9c4-13.9 7.2-27.6 9.4-41.1 0.3-1.9 0.7-4.2 1-6.4 2.8-19.1 4-37.8 3.6-56.1 0-2.2-0.1-4.5-0.2-6.9v-0.7c-0.5-12-1.7-24.2-3.6-36.5-0.4-2.6-0.8-5.3-1.4-8.1-0.4-2.5-0.9-5-1.4-7.6l-0.2-1.1c0-0.1-0.1-0.3-0.1-0.4 0-0.2-0.1-0.3-0.1-0.5-0.6-2.9-1.2-5.7-2-8.6-0.5-2.3-1.1-4.7-1.7-7l-0.4-1.7c-0.6-2.1-1.2-4.3-1.8-6.5-0.8-2.8-1.6-5.6-2.5-8.4-2.7-8.6-5.8-17.2-9.2-25.7-10.9-27.3-25.8-54.6-44.1-80.8-1.9-2.7-4-5.6-6.1-8.5-1.7-2.3-3.4-4.6-5.2-6.9l-0.2-0.3c-2.8-3.8-5.9-7.7-9.1-11.5-1.7-2.1-3.5-4.3-5.3-6.4-0.4-0.5-0.8-0.9-1.2-1.4-0.1-0.2-0.3-0.3-0.4-0.5-0.1-0.2-0.3-0.3-0.4-0.5-2.2-2.6-4.5-5.2-6.9-7.8-2.2-2.5-4.5-5-6.7-7.5-0.5-0.6-1-1.2-1.6-1.7-2.2-2.4-4.5-4.8-6.9-7.3-6.3-6.6-12.7-13-19.3-19.2-3.8-3.6-7.6-7.2-11.5-10.7-2.8-2.6-5.6-5.1-8.4-7.6-10.2-9.1-20.6-17.9-32-26.8-1.9-1.6-4.3-3.4-6.6-5.2l-0.6-0.5c-5.7-4.3-11.1-8.3-16.5-12.2-4.1-3-8.3-5.9-12.5-8.8-7.7-5.2-13.6-9-19.3-12.5-3.1-2-6.3-3.9-9.5-5.7-3.9-2.4-7.4-4.4-10.8-6.2-1.4-0.8-2.9-1.6-4.4-2.4l-2.9-1.6c-0.2-0.1-0.4-0.2-0.5-0.3-4.1-2.2-8.3-4.4-12.3-6.4-2.3-1.2-4.6-2.3-6.9-3.4-2.7-1.4-5.5-2.6-8.2-3.9-0.2-0.1-0.3-0.1-0.5-0.2l-2.8-1.2c-1-0.4-1.9-0.9-2.9-1.3-0.4-0.2-0.8-0.4-1.2-0.5l-2.2-1c-1.7-0.7-3.4-1.4-5-2.1-14.2-6-29-11.3-43.7-15.5-2.5-0.8-4.9-1.5-7.4-2.1-3.2-0.9-6.3-1.7-9.4-2.4-3.2-0.8-6.5-1.6-9.7-2.3-8.4-1.9-17.1-3.5-25.6-4.6-3.7-0.6-7.3-1.1-10.9-1.5l-2.7-0.3c-3.5-0.4-6.9-0.7-10.3-1-0.9-0.1-1.7-0.2-2.5-0.2-4-0.3-8.1-0.5-12.1-0.7-4.3 0.3-8.8 0.2-13.3 0.2z" fill="#6B0A0C" p-id="6352"></path><path d="M416 872.7c-25.6-5.2-50.2-15.9-72.6-29.5-31.4-18.9-59.1-43.2-86.7-67.4 34.4 30.1 98.5 39.4 142.1 39.6 49.9 0.2 100.8-13.2 143.4-39.3 122.4-74.8 166.4-238 99.1-364.2-25.5-47.8-65.2-87.9-112.8-113.9-47.2-25.8-103.8-37.5-155.7-23.2-60.7 16.7-108.9 68.8-126.6 129.3-22.7 77.7 2 171.8 64.6 225.3 48.8 41.6 130.1 52.1 188 24.6 75.7-36 76.5-141.5 15.9-193.4-6.2-5.3-12.9-10-20.1-13.8-7.5-4.1-15.8-7.3-24.4-7-8.6 0.3-17.4 5-20.6 12.9-3.6 8.9 0.8 19.2 7 26.5 6.2 7.3 14.3 12.9 20.3 20.5 38.2 48-22.6 97.8-70.3 92.6-56.5-6.2-92-64.6-93.6-117.4-1.7-57.6 36.9-111.2 92.8-126.3 37.7-10.2 79.2-2.1 112.7 17.9 69.1 41.3 101.7 121.9 93.9 200.3-7.3 72.6-55.8 143.8-125.4 165.7-68.9 21.7-144.1 18.9-206.6-19.8C125.3 616.4 116 372 264 265.2c87.7-63.2 211.4-69.7 305-15.6 131.1 75.8 205.5 225.5 166 374.9-28.6 108.1-105.9 197.1-211.4 236.4-24.6 9.2-50.6 15.5-76.9 15.2-10.2-0.2-20.5-1.4-30.7-3.4z" fill="#FF5A78" p-id="6353"></path><path d="M144.1 659c-29.6-41.9-51.3-84.7-61.9-124.6-38.6-145.6 36.7-247.4 70.3-280.8 0 0 66.3-80.7 176.4-111.7 98.3-27.7 231.6-15.6 383.8 128.7 14.3 13.6 27.2 27.2 38.8 40.9-6.4-5.8-268.4-311-546-69.7-225.1 195.8-76.2 394.6-61.4 417.2z" fill="#FFFFFF" p-id="6354"></path><path d="M181.5 520.5l-20.2 20.2-26.7-20.5 23.3-23.3zM239.6 674.4l24.8-9.9 21.4 21.4-21.5 21.5zM343.5 261.6l15-46.5 37.4-5.8-10.4 42zM242 376.5l24 24 0.6 16.2-31.6-14.4zM551.8 263.4h45.6l-6 39.6-58.8-20.4zM671.9 397.5l31.4 0.2-4.4 26.8-24.3-2.7zM736.7 600.6l-24.8 9.3-14 14 40.4 9.3zM599.6 756.3l23.2 22-20.3 20.3-20.9-20.9zM327.9 533.2l37.6-15.6 15 40.3-22 3.1zM429.2 367.2l12.6 43.2 31.9-27.5zM519 698.6s0.4 22.6 5.6 28c5.2 5.5-19.9 19.9-19.9 19.9l-26.7-33 41-14.9zM557.8 504l18.3-49.4 25.2 25.3 3.5 14.5z" fill="#773417" p-id="6355"></path></svg>